<svg xmlns="http://www.w3.org/2000/svg" xmlns:svg="http://www.w3.org/2000/svg" id="svg70" width="48.574" height="91.094" version="1.1" xml:space="preserve" style="shape-rendering:geometricPrecision;text-rendering:geometricPrecision;image-rendering:optimizeQuality;fill-rule:evenodd;clip-rule:evenodd" viewBox="0 0 126 237"><defs id="defs4"><marker style="overflow:visible" id="DotS" orient="auto" refX="0" refY="0"><path transform="scale(0.2) translate(7.4, 1)" style="fill-rule:evenodd;fill:context-stroke;stroke:context-stroke;stroke-width:1pt" id="path1319" d="M -2.5,-1.0 C -2.5,1.7600000 -4.7400000,4.0 -7.5,4.0 C -10.260000,4.0 -12.5,1.7600000 -12.5,-1.0 C -12.5,-3.7600000 -10.260000,-6.0 -7.5,-6.0 C -4.7400000,-6.0 -2.5,-3.7600000 -2.5,-1.0 z"/></marker><style id="style2" type="text/css">.str0,.str1,.str2{stroke:#373435}.str2{stroke-width:3.46946}.str1{stroke-width:3.47044}.str0{stroke-width:1.73522}.fil1,.fil3{fill:none}.fil3{fill-rule:nonzero}.fil4{fill:#373435}.fil0{fill:#fef6d4}.fil2{fill:#373435;fill-rule:nonzero}.fnt0{font-weight:400;font-size:17.3512px;font-family:&apos;Myriad Pro&apos;}.fnt1,.fnt2{font-style:italic;font-weight:700;font-size:13.8808px;font-family:&apos;Lato&apos;}.fnt2{font-size:17.3512px}</style><marker style="overflow:visible" id="DotS-8" orient="auto" refX="0" refY="0"><path transform="matrix(0.2,0,0,0.2,1.48,0.2)" style="fill:context-stroke;fill-rule:evenodd;stroke:context-stroke;stroke-width:1pt" id="path1319-3" d="m -2.5,-1 c 0,2.76 -2.24,5 -5,5 -2.76,0 -5,-2.24 -5,-5 0,-2.76 2.24,-5 5,-5 2.76,0 5,2.24 5,5 z"/></marker><marker style="overflow:visible" id="DotS-6" orient="auto" refX="0" refY="0"><path transform="matrix(0.2,0,0,0.2,1.48,0.2)" style="fill:context-stroke;fill-rule:evenodd;stroke:context-stroke;stroke-width:1pt" id="path1319-1" d="m -2.5,-1 c 0,2.76 -2.24,5 -5,5 -2.76,0 -5,-2.24 -5,-5 0,-2.76 2.24,-5 5,-5 2.76,0 5,2.24 5,5 z"/></marker></defs><g id="Layer_x0020_1"><metadata id="CorelCorpID_0Corel-Layer"/><rect id="rect7" width="79.704" height="180.646" x="27" y="20" class="fil0 str0"/><line id="line9" x1="48" x2="48" y1="28" y2="74" class="fil1 str1"/><line id="line11" x1="46.302" x2="74" y1="29" y2="29" class="fil1 str1"/><line id="line13" x1="46.285" x2="74" y1="73" y2="73" class="fil1 str1"/><line id="line15" x1="41" x2="41" y1="28" y2="74" class="fil1 str1"/><line id="line17" x1="56" x2="56" y1="36" y2="65" class="fil1 str1"/><line id="line19" x1="56" x2="74" y1="50" y2="50" class="fil1 str1"/><line id="line24" x1="72.214" x2="72.214" y1="113.071" y2="73.071" class="fil3 str1"/><line id="line24-8" x1="72" x2="72" y1="29" y2="4.68" class="fil3 str1" style="clip-rule:evenodd;fill:none;fill-rule:nonzero;stroke:#373435;stroke-width:2.58939;stroke-miterlimit:4;stroke-dasharray:none;marker-end:url(#DotS);image-rendering:optimizeQuality;shape-rendering:geometricPrecision;text-rendering:geometricPrecision"/><line id="line24-8-7" x1="72" x2="72" y1="183.804" y2="208.124" class="fil3 str1" style="clip-rule:evenodd;fill:none;fill-rule:nonzero;stroke:#373435;stroke-width:2.58939;stroke-miterlimit:4;stroke-dasharray:none;marker-end:url(#DotS-8);image-rendering:optimizeQuality;shape-rendering:geometricPrecision;text-rendering:geometricPrecision"/><polygon id="polygon32" points="63 183 63 113 81 113 81 183" class="fil3 str1"/><g id="_2063338991568"><g id="g36" transform="rotate(179.90718,157.22742,-176.33923)"><text id="text34" x="253" y="-451" class="fil4 fnt0">+</text></g></g><g id="_2063338992368"><g id="g41" transform="rotate(-90.092819,476.81053,-29.005065)"><text id="text39" x="253" y="-451" class="fil4 fnt0">_</text></g></g><line id="line44" x1="52" x2="90" y1="180" y2="129" class="fil1 str1"/><polygon id="polygon46" points="97 120 82 126 95 136" class="fil2"/><g id="_2063338991728" transform="translate(3.703125,-1.4242788)"><g id="g50" transform="translate(-253.876,520.313)"><text id="text48" x="253" y="-451" class="fil4 fnt1">WL</text></g></g><circle id="circle53" cx="36" cy="50" r="4" class="fil1 str0"/><g id="_2063338989616" transform="translate(-2.8485577,3.9879808)"><g id="g57" transform="translate(-171.614,461.205)"><text id="text55" x="253" y="-451" class="fil4 fnt1">VDD</text></g></g><g id="_2063338989808"><g id="g62" transform="translate(-171.552,666.167)"><text id="text60" x="253" y="-451" class="fil4 fnt1">GND</text></g></g><polyline id="polyline65" points="72 29 85 29 85 50 72 50" class="fil1 str2"/><text id="text67" x="16" y="237" class="fil4 fnt2">1T1R Structure</text><line id="line24-8-3" x1="32.232" x2="7.912" y1="50.152" y2="50.152" class="fil3 str1" style="clip-rule:evenodd;fill:none;fill-rule:nonzero;stroke:#373435;stroke-width:2.58939;stroke-miterlimit:4;stroke-dasharray:none;marker-end:url(#DotS-6);image-rendering:optimizeQuality;shape-rendering:geometricPrecision;text-rendering:geometricPrecision"/></g></svg>